<svg width="31" height="31" viewBox="0 0 31 31" fill="none" xmlns="http://www.w3.org/2000/svg">
<g clip-path="url(#clip0_1_147)">
<path d="M14.9632 0.078125C11.256 0.0781927 7.69293 1.51411 5.02159 4.08459C2.35026 6.65506 0.778323 10.1603 0.635635 13.8647C0.492947 17.5692 1.7906 21.1849 4.25629 23.9534C6.72199 26.7217 10.1641 28.4274 13.8603 28.7126V17.7254H10.5515C10.259 17.7254 9.97842 17.6091 9.77158 17.4023C9.56474 17.1954 9.44853 16.9149 9.44853 16.6224C9.44853 16.3298 9.56474 16.0493 9.77158 15.8425C9.97842 15.6356 10.259 15.5194 10.5515 15.5194H13.8603V12.2106C13.8616 11.0409 14.3269 9.91957 15.1539 9.09249C15.981 8.26542 17.1024 7.80018 18.2721 7.79884H20.4779C20.7705 7.79884 21.0509 7.91504 21.2578 8.12188C21.4646 8.32872 21.5809 8.60926 21.5809 8.90178C21.5809 9.19429 21.4646 9.47483 21.2578 9.68167C21.0509 9.88853 20.7705 10.0047 20.4779 10.0047H18.2721C17.6872 10.0054 17.1265 10.238 16.713 10.6516C16.2995 11.0651 16.0668 11.6258 16.0662 12.2106V15.5194H19.375C19.6676 15.5194 19.948 15.6356 20.1548 15.8425C20.3616 16.0493 20.4779 16.3298 20.4779 16.6224C20.4779 16.9149 20.3616 17.1954 20.1548 17.4023C19.948 17.6091 19.6676 17.7254 19.375 17.7254H16.0662V28.7126C19.7624 28.4274 23.2044 26.7217 25.6701 23.9532C28.1359 21.1849 29.4335 17.5692 29.2907 13.8647C29.1481 10.1603 27.5761 6.65508 24.9049 4.08461C22.2335 1.51413 18.6704 0.0782065 14.9632 0.078125Z" fill="#6B6768"/>
</g>
<defs>
<clipPath id="clip0_1_147">
<rect width="30" height="30" fill="white" transform="translate(0.625 0.078125)"/>
</clipPath>
</defs>
</svg>
