<svg width="36" height="30" viewBox="0 0 36 30" fill="none" xmlns="http://www.w3.org/2000/svg">
<path d="M34.6341 3.82971C34.4863 3.63208 34.2801 3.48615 34.0446 3.41269C33.8089 3.33921 33.5563 3.34198 33.3223 3.42058C31.8849 3.90396 30.3911 4.20009 28.8778 4.30162C28.0236 3.09894 26.8125 2.19544 25.4164 1.71896C24.0203 1.24249 22.5096 1.21721 21.0983 1.64669C19.6869 2.07617 18.4464 2.93867 17.5523 4.11208C16.6582 5.28549 16.1558 6.7104 16.1162 8.18511C13.8296 7.72087 11.6587 6.80492 9.73061 5.49088C7.80257 4.17683 6.15621 2.49116 4.88803 0.532661C4.76498 0.343582 4.58996 0.194042 4.38399 0.101992C4.17802 0.00994258 3.94987 -0.0207025 3.72694 0.0137361C3.50398 0.0481747 3.29571 0.146233 3.12712 0.296137C2.95852 0.446044 2.8368 0.641423 2.77652 0.858819C1.74667 4.58141 1.8194 8.52289 2.98592 12.2049C4.15241 15.887 6.36255 19.1512 9.34807 21.6019C6.83589 22.9845 4.02244 23.7285 1.15519 23.7686C0.896871 23.7726 0.647072 23.8616 0.444572 24.0219C0.242074 24.1824 0.0982032 24.4052 0.0353001 24.6559C-0.0276032 24.9064 -0.00601977 25.1707 0.0966988 25.4078C0.199418 25.6448 0.377524 25.8412 0.603366 25.9667C3.54049 27.5927 6.84081 28.4501 10.1979 28.4597C13.5551 28.4691 16.8602 27.6302 19.8064 26.0209C22.7526 24.4114 25.2444 22.0837 27.0506 19.2538C28.8568 16.424 29.9186 13.1836 30.1376 9.83362C31.8864 8.54752 33.4127 6.98342 34.6556 5.20358C34.797 5.00147 34.8713 4.75986 34.8673 4.51316C34.8636 4.26647 34.7818 4.02729 34.6341 3.82971Z" fill="#6B6768"/>
</svg>
