<svg width="36" height="31" viewBox="0 0 36 31" fill="none" xmlns="http://www.w3.org/2000/svg">
<g clip-path="url(#clip0_1_137)">
<path d="M34.6341 3.90783C34.4863 3.71021 34.2801 3.56427 34.0446 3.49081C33.8089 3.41733 33.5563 3.42011 33.3223 3.49871C31.8849 3.98208 30.3911 4.27822 28.8778 4.37975C28.0236 3.17707 26.8125 2.27356 25.4164 1.79709C24.0203 1.32062 22.5096 1.29534 21.0983 1.72482C19.6869 2.15429 18.4464 3.01679 17.5523 4.19021C16.6582 5.36362 16.1558 6.78852 16.1162 8.26323C13.8296 7.799 11.6587 6.88304 9.73061 5.56901C7.80257 4.25495 6.15621 2.56929 4.88803 0.610786C4.76498 0.421707 4.58996 0.272167 4.38399 0.180117C4.17802 0.0880676 3.94987 0.0574225 3.72694 0.0918611C3.50398 0.1263 3.29571 0.224358 3.12712 0.374262C2.95852 0.524169 2.8368 0.719548 2.77652 0.936944C1.74667 4.65954 1.8194 8.60101 2.98592 12.2831C4.15241 15.9651 6.36255 19.2294 9.34807 21.68C6.83589 23.0626 4.02244 23.8066 1.15519 23.8468C0.896871 23.8507 0.647072 23.9398 0.444572 24.1001C0.242074 24.2606 0.0982032 24.4833 0.0353001 24.734C-0.0276032 24.9845 -0.00601977 25.2489 0.0966988 25.4859C0.199418 25.7229 0.377524 25.9194 0.603366 26.0448C3.54049 27.6708 6.84081 28.5282 10.1979 28.5378C13.5551 28.5472 16.8602 27.7083 19.8064 26.099C22.7526 24.4895 25.2444 22.1619 27.0506 19.3319C28.8568 16.5021 29.9186 13.2618 30.1376 9.91175C31.8864 8.62565 33.4127 7.06154 34.6556 5.2817C34.797 5.07959 34.8713 4.83798 34.8673 4.59129C34.8636 4.34459 34.7818 4.10542 34.6341 3.90783Z" fill="#6B6768"/>
</g>
<defs>
<clipPath id="clip0_1_137">
<rect width="35.625" height="30" fill="white" transform="translate(0 0.078125)"/>
</clipPath>
</defs>
</svg>
