<svg width="31" height="31" viewBox="0 0 31 31" fill="none" xmlns="http://www.w3.org/2000/svg">
<g clip-path="url(#clip0_1_140)">
<path d="M28.125 0.078125H3.125C2.46219 0.078883 1.82675 0.342519 1.35807 0.811195C0.889394 1.27987 0.625758 1.91532 0.625 2.57812V27.5781C0.625758 28.2409 0.889394 28.8763 1.35807 29.3451C1.82675 29.8137 2.46219 30.0773 3.125 30.0781H28.125C28.7878 30.0773 29.4232 29.8137 29.892 29.3451C30.3606 28.8763 30.6242 28.2409 30.625 27.5781V2.57812C30.6242 1.91532 30.3606 1.27987 29.892 0.811195C29.4232 0.342519 28.7878 0.078883 28.125 0.078125ZM10.625 22.5783C10.625 22.9097 10.4933 23.2277 10.2589 23.4621C10.0245 23.6965 9.70652 23.8283 9.375 23.8283C9.04348 23.8283 8.72554 23.6965 8.49112 23.4621C8.2567 23.2277 8.125 22.9097 8.125 22.5783V12.5783C8.125 12.2467 8.2567 11.9288 8.49112 11.6944C8.72554 11.46 9.04348 11.3283 9.375 11.3283C9.70652 11.3283 10.0245 11.46 10.2589 11.6944C10.4933 11.9288 10.625 12.2467 10.625 12.5783V22.5783ZM9.375 9.45327C9.00416 9.45327 8.64164 9.34331 8.3333 9.13729C8.02496 8.93124 7.78464 8.6384 7.64272 8.2958C7.50082 7.95319 7.46368 7.57618 7.53602 7.21248C7.60838 6.84876 7.78696 6.51467 8.04918 6.25245C8.3114 5.99023 8.6455 5.81165 9.0092 5.73931C9.37292 5.66694 9.74992 5.70408 10.0925 5.846C10.4351 5.98791 10.728 6.22824 10.934 6.53658C11.14 6.84492 11.25 7.20743 11.25 7.57827C11.25 8.07555 11.0525 8.55247 10.7008 8.90411C10.3492 9.25572 9.87228 9.45327 9.375 9.45327ZM24.375 22.5783C24.375 22.9097 24.2434 23.2277 24.0088 23.4621C23.7744 23.6965 23.4566 23.8283 23.125 23.8283C22.7934 23.8283 22.4756 23.6965 22.2412 23.4621C22.0066 23.2277 21.875 22.9097 21.875 22.5783V16.9533C21.875 16.1245 21.5458 15.3296 20.9598 14.7436C20.3737 14.1575 19.5788 13.8283 18.75 13.8283C17.9212 13.8283 17.1263 14.1575 16.5403 14.7436C15.9542 15.3296 15.625 16.1245 15.625 16.9533V22.5783C15.625 22.9097 15.4933 23.2277 15.2589 23.4621C15.0245 23.6965 14.7065 23.8283 14.375 23.8283C14.0435 23.8283 13.7255 23.6965 13.4911 23.4621C13.2567 23.2277 13.125 22.9097 13.125 22.5783V12.5783C13.1249 12.271 13.238 11.9745 13.4427 11.7453C13.6474 11.5162 13.9294 11.3705 14.2348 11.3361C14.5401 11.3017 14.8474 11.3811 15.0979 11.5589C15.3485 11.7368 15.5247 12.0008 15.593 12.3004C16.4383 11.7259 17.4243 11.3927 18.4448 11.3367C19.4654 11.2807 20.4819 11.504 21.385 11.9825C22.2882 12.461 23.0438 13.1766 23.5706 14.0525C24.0974 14.9283 24.3756 15.9312 24.375 16.9533V22.5783Z" fill="#6B6768"/>
</g>
<defs>
<clipPath id="clip0_1_140">
<rect width="30" height="30" fill="white" transform="translate(0.625 0.078125)"/>
</clipPath>
</defs>
</svg>
