<svg width="31" height="30" viewBox="0 0 31 30" fill="none" xmlns="http://www.w3.org/2000/svg">
<g clip-path="url(#clip0_9_516)">
<path d="M28.125 0H3.125C2.46219 0.000758028 1.82675 0.264394 1.35807 0.73307C0.889394 1.20175 0.625758 1.83719 0.625 2.5V27.5C0.625758 28.1628 0.889394 28.7982 1.35807 29.267C1.82675 29.7356 2.46219 29.9992 3.125 30H28.125C28.7878 29.9992 29.4232 29.7356 29.892 29.267C30.3606 28.7982 30.6242 28.1628 30.625 27.5V2.5C30.6242 1.83719 30.3606 1.20175 29.892 0.73307C29.4232 0.264394 28.7878 0.000758028 28.125 0ZM10.625 22.5002C10.625 22.8316 10.4933 23.1496 10.2589 23.384C10.0245 23.6184 9.70652 23.7502 9.375 23.7502C9.04348 23.7502 8.72554 23.6184 8.49112 23.384C8.2567 23.1496 8.125 22.8316 8.125 22.5002V12.5001C8.125 12.1686 8.2567 11.8507 8.49112 11.6163C8.72554 11.3818 9.04348 11.2501 9.375 11.2501C9.70652 11.2501 10.0245 11.3818 10.2589 11.6163C10.4933 11.8507 10.625 12.1686 10.625 12.5001V22.5002ZM9.375 9.37514C9.00416 9.37514 8.64164 9.26518 8.3333 9.05916C8.02496 8.85312 7.78464 8.56028 7.64272 8.21768C7.50082 7.87506 7.46368 7.49806 7.53602 7.13436C7.60838 6.77064 7.78696 6.43654 8.04918 6.17432C8.3114 5.9121 8.6455 5.73352 9.0092 5.66118C9.37292 5.58882 9.74992 5.62596 10.0925 5.76788C10.4351 5.90978 10.728 6.15012 10.934 6.45846C11.14 6.7668 11.25 7.1293 11.25 7.50014C11.25 7.99742 11.0525 8.47434 10.7008 8.82598C10.3492 9.1776 9.87228 9.37514 9.375 9.37514ZM24.375 22.5002C24.375 22.8316 24.2434 23.1496 24.0088 23.384C23.7744 23.6184 23.4566 23.7502 23.125 23.7502C22.7934 23.7502 22.4756 23.6184 22.2412 23.384C22.0066 23.1496 21.875 22.8316 21.875 22.5002V16.8751C21.875 16.0463 21.5458 15.2515 20.9598 14.6654C20.3737 14.0794 19.5788 13.7501 18.75 13.7501C17.9212 13.7501 17.1263 14.0794 16.5403 14.6654C15.9542 15.2515 15.625 16.0463 15.625 16.8751V22.5002C15.625 22.8316 15.4933 23.1496 15.2589 23.384C15.0245 23.6184 14.7065 23.7502 14.375 23.7502C14.0435 23.7502 13.7255 23.6184 13.4911 23.384C13.2567 23.1496 13.125 22.8316 13.125 22.5002V12.5001C13.1249 12.1929 13.238 11.8963 13.4427 11.6672C13.6474 11.4381 13.9294 11.2924 14.2348 11.258C14.5401 11.2236 14.8474 11.3029 15.0979 11.4808C15.3485 11.6587 15.5247 11.9226 15.593 12.2222C16.4383 11.6478 17.4243 11.3146 18.4448 11.2586C19.4654 11.2026 20.4819 11.4258 21.385 11.9043C22.2882 12.3828 23.0438 13.0985 23.5706 13.9743C24.0974 14.8502 24.3756 15.8531 24.375 16.8751V22.5002Z" fill="#6B6768"/>
</g>
<defs>
<clipPath id="clip0_9_516">
<rect width="30" height="30" fill="white" transform="translate(0.625)"/>
</clipPath>
</defs>
</svg>
