<svg width="31" height="31" viewBox="0 0 31 31" fill="none" xmlns="http://www.w3.org/2000/svg">
<g clip-path="url(#clip0_13_305)">
<path d="M15.2734 20.0859C17.8623 20.0859 19.9609 17.9873 19.9609 15.3984C19.9609 12.8096 17.8623 10.7109 15.2734 10.7109C12.6846 10.7109 10.5859 12.8096 10.5859 15.3984C10.5859 17.9873 12.6846 20.0859 15.2734 20.0859Z" fill="#6B6768"/>
<path d="M21.7188 0.75H8.82812C6.65328 0.752463 4.56822 1.61751 3.03036 3.15536C1.49251 4.69322 0.627463 6.77828 0.625 8.95312V21.8438C0.627463 24.0186 1.49251 26.1038 3.03036 27.6414C4.56822 29.1793 6.65328 30.0444 8.82812 30.0469H21.7188C23.8936 30.0444 25.9788 29.1793 27.5164 27.6414C29.0543 26.1038 29.9194 24.0186 29.9219 21.8438V8.95312C29.9194 6.77828 29.0543 4.69322 27.5164 3.15536C25.9788 1.61751 23.8936 0.752463 21.7188 0.75ZM15.2734 22.4297C13.8828 22.4297 12.5234 22.0174 11.3671 21.2447C10.2108 20.4722 9.30959 19.374 8.77741 18.0892C8.24522 16.8044 8.10599 15.3906 8.3773 14.0267C8.64859 12.6628 9.31825 11.4099 10.3016 10.4266C11.2849 9.44325 12.5378 8.77359 13.9017 8.5023C15.2656 8.23099 16.6794 8.37022 17.9642 8.90241C19.249 9.43459 20.3472 10.3358 21.1197 11.4921C21.8924 12.6484 22.3047 14.0078 22.3047 15.3984C22.3026 17.2626 21.5611 19.0498 20.2429 20.3679C18.9248 21.6861 17.1376 22.4276 15.2734 22.4297ZM22.8906 9.53906C22.543 9.53906 22.2031 9.43598 21.9141 9.24281C21.625 9.04967 21.3996 8.77513 21.2667 8.45394C21.1336 8.13274 21.0987 7.7793 21.1666 7.43831C21.2344 7.09734 21.4019 6.78413 21.6477 6.53829C21.8935 6.29246 22.2066 6.12504 22.5477 6.05721C22.8887 5.98939 23.2422 6.02421 23.5634 6.15724C23.8846 6.29029 24.1591 6.51559 24.3522 6.80466C24.5453 7.09373 24.6484 7.43359 24.6484 7.78125C24.6484 8.24745 24.4632 8.69456 24.1336 9.02421C23.8039 9.35387 23.3568 9.53906 22.8906 9.53906Z" fill="#6B6768"/>
</g>
<defs>
<clipPath id="clip0_13_305">
<rect width="30" height="30" fill="white" transform="translate(0.625 0.75)"/>
</clipPath>
</defs>
</svg>
