<svg width="31" height="31" viewBox="0 0 31 31" fill="none" xmlns="http://www.w3.org/2000/svg">
<g clip-path="url(#clip0_13_309)">
<path d="M14.9632 0.75C11.256 0.750068 7.69293 2.18599 5.02159 4.75646C2.35026 7.32693 0.778323 10.8322 0.635635 14.5366C0.492947 18.2411 1.7906 21.8568 4.25629 24.6252C6.72199 27.3935 10.1641 29.0993 13.8603 29.3845V18.3972H10.5515C10.259 18.3972 9.97842 18.281 9.77158 18.0741C9.56474 17.8673 9.44853 17.5868 9.44853 17.2942C9.44853 17.0017 9.56474 16.7212 9.77158 16.5143C9.97842 16.3075 10.259 16.1913 10.5515 16.1913H13.8603V12.8825C13.8616 11.7128 14.3269 10.5914 15.1539 9.76436C15.981 8.9373 17.1024 8.47205 18.2721 8.47071H20.4779C20.7705 8.47071 21.0509 8.58692 21.2578 8.79376C21.4646 9.0006 21.5809 9.28113 21.5809 9.57365C21.5809 9.86617 21.4646 10.1467 21.2578 10.3535C21.0509 10.5604 20.7705 10.6766 20.4779 10.6766H18.2721C17.6872 10.6773 17.1265 10.9099 16.713 11.3234C16.2995 11.737 16.0668 12.2977 16.0662 12.8825V16.1913H19.375C19.6676 16.1913 19.948 16.3075 20.1548 16.5143C20.3616 16.7212 20.4779 17.0017 20.4779 17.2942C20.4779 17.5868 20.3616 17.8673 20.1548 18.0741C19.948 18.281 19.6676 18.3972 19.375 18.3972H16.0662V29.3845C19.7624 29.0993 23.2044 27.3935 25.6701 24.6251C28.1359 21.8568 29.4335 18.2411 29.2907 14.5366C29.1481 10.8322 27.5761 7.32695 24.9049 4.75648C22.2335 2.18601 18.6704 0.750082 14.9632 0.75Z" fill="#6B6768"/>
</g>
<defs>
<clipPath id="clip0_13_309">
<rect width="30" height="30" fill="white" transform="translate(0.625 0.75)"/>
</clipPath>
</defs>
</svg>
