<svg width="21" height="21" viewBox="0 0 21 21" fill="none" xmlns="http://www.w3.org/2000/svg">
<g clip-path="url(#clip0_1_36)">
<path d="M12.9231 6.86812L8.63313 11.1681L6.98313 9.51812C6.89349 9.41344 6.78316 9.32843 6.65909 9.2684C6.53503 9.20837 6.39991 9.17464 6.26219 9.16932C6.12446 9.16401 5.98714 9.18721 5.85881 9.23748C5.73048 9.28776 5.61393 9.36402 5.51648 9.46148C5.41903 9.55893 5.34276 9.67548 5.29249 9.80381C5.24221 9.93213 5.21902 10.0695 5.22434 10.2072C5.22966 10.3449 5.26338 10.48 5.3234 10.6041C5.38342 10.7281 5.46844 10.8385 5.57312 10.9281L7.92312 13.2881C8.01656 13.3808 8.12738 13.4541 8.24922 13.5039C8.37107 13.5536 8.50152 13.5789 8.63313 13.5781C8.89546 13.577 9.14686 13.4728 9.33313 13.2881L14.3331 8.28813C14.4268 8.19516 14.5012 8.08457 14.552 7.96271C14.6028 7.84085 14.6289 7.71013 14.6289 7.57812C14.6289 7.44612 14.6028 7.3154 14.552 7.19354C14.5012 7.07168 14.4268 6.96108 14.3331 6.86812C14.1457 6.68187 13.8923 6.57733 13.6281 6.57733C13.3639 6.57733 13.1105 6.68187 12.9231 6.86812ZM10.2031 0.078125C8.22532 0.078125 6.29191 0.664615 4.64743 1.76342C3.00294 2.86225 1.72122 4.42403 0.964334 6.2513C0.207458 8.07856 0.00942414 10.0892 0.395277 12.029C0.781129 13.9688 1.73354 15.7506 3.13207 17.1492C4.53059 18.5477 6.31242 19.5001 8.25222 19.886C10.192 20.2718 12.2027 20.0738 14.0299 19.3169C15.8572 18.56 17.419 17.2783 18.5178 15.6338C19.6166 13.9893 20.2031 12.0559 20.2031 10.0781C20.2031 8.7649 19.9444 7.46455 19.4419 6.2513C18.9394 5.03803 18.2028 3.93565 17.2742 3.00706C16.3456 2.07847 15.2432 1.34188 14.0299 0.83933C12.8167 0.336783 11.5163 0.078125 10.2031 0.078125ZM10.2031 18.0781C8.62088 18.0781 7.07416 17.6089 5.75856 16.7299C4.44298 15.8508 3.4176 14.6014 2.8121 13.1396C2.2066 11.6778 2.04817 10.0693 2.35685 8.5174C2.66553 6.96555 3.42746 5.5401 4.54628 4.42128C5.6651 3.30246 7.09055 2.54052 8.6424 2.23184C10.1943 1.92316 11.8028 2.08158 13.2646 2.68708C14.7264 3.29259 15.9758 4.31797 16.8549 5.63356C17.7339 6.94915 18.2031 8.49588 18.2031 10.0781C18.2031 12.1998 17.3603 14.2347 15.86 15.735C14.3597 17.2352 12.3248 18.0781 10.2031 18.0781Z" fill="white"/>
</g>
<defs>
<clipPath id="clip0_1_36">
<rect width="20" height="20" fill="white" transform="translate(0.203125 0.078125)"/>
</clipPath>
</defs>
</svg>
