<svg width="24" height="25" viewBox="0 0 24 25" fill="none" xmlns="http://www.w3.org/2000/svg">
<g opacity="0.5" clip-path="url(#clip0_1_127)">
<path d="M23.3989 4.37855C23.3986 4.36191 23.3977 4.34529 23.3964 4.3287C23.3953 4.31516 23.394 4.30171 23.3923 4.28835C23.3904 4.2728 23.388 4.25734 23.3852 4.24188C23.3828 4.22793 23.3801 4.21408 23.3771 4.20038C23.3737 4.18571 23.3699 4.17118 23.3658 4.15668C23.3618 4.14281 23.3579 4.12908 23.3533 4.11551C23.3486 4.10133 23.3434 4.08738 23.338 4.07343C23.3328 4.06008 23.3274 4.04687 23.3216 4.03388C23.3155 4.02015 23.3089 4.00666 23.3021 3.9932C23.2956 3.98043 23.2889 3.9678 23.2819 3.95538C23.2745 3.94256 23.2668 3.92995 23.2589 3.9174C23.2507 3.90474 23.2424 3.89232 23.2338 3.8801C23.2256 3.86859 23.2171 3.8573 23.2084 3.8461C23.1985 3.83349 23.1883 3.82123 23.1778 3.80918C23.1728 3.8035 23.1685 3.79745 23.1635 3.79186C23.1592 3.78713 23.1544 3.78312 23.1499 3.77851C23.1391 3.76714 23.1278 3.75623 23.1164 3.74544C23.1058 3.73544 23.0951 3.72553 23.0842 3.71611C23.0734 3.70688 23.0622 3.69814 23.0509 3.68941C23.0386 3.67985 23.0263 3.67037 23.0137 3.66156C23.0027 3.6539 22.9913 3.64678 22.98 3.63961C22.9666 3.63115 22.9532 3.62272 22.9396 3.61503C22.9276 3.60833 22.9152 3.60226 22.903 3.59611C22.8894 3.58932 22.876 3.58248 22.8622 3.57642C22.8486 3.57049 22.8349 3.56532 22.8211 3.56005C22.8078 3.555 22.7946 3.54986 22.7813 3.54547C22.7666 3.54066 22.7518 3.53665 22.737 3.53258C22.7237 3.52896 22.7104 3.52531 22.697 3.52231C22.6822 3.51899 22.667 3.51638 22.652 3.5138C22.6378 3.51138 22.6235 3.50902 22.6092 3.50729C22.5949 3.50556 22.5806 3.5044 22.5662 3.50336C22.5505 3.50221 22.5348 3.5013 22.519 3.50097C22.5126 3.50082 22.5065 3.5 22.5 3.5H0.9C0.893958 3.5 0.888134 3.5008 0.882092 3.50091C0.865504 3.50124 0.848914 3.50217 0.83238 3.50341C0.818701 3.50445 0.805133 3.50552 0.791675 3.50714C0.776568 3.50895 0.761572 3.51143 0.746521 3.51404C0.732184 3.51651 0.717847 3.51895 0.703784 3.52211C0.689609 3.52527 0.675659 3.52911 0.661597 3.53296C0.647422 3.53686 0.633252 3.54068 0.619354 3.54524C0.605292 3.54985 0.591454 3.55521 0.577552 3.56054C0.564422 3.56559 0.551239 3.57053 0.538385 3.57616C0.524047 3.58245 0.510035 3.58954 0.495972 3.59663C0.484159 3.60256 0.472346 3.60835 0.460872 3.61478C0.446809 3.62266 0.433076 3.63132 0.419344 3.64002C0.408358 3.647 0.397261 3.65392 0.386606 3.66136C0.373698 3.67032 0.361229 3.67993 0.34876 3.68965C0.337662 3.69825 0.326676 3.70687 0.316021 3.71599C0.304926 3.72547 0.294214 3.73544 0.283447 3.74557C0.272077 3.75629 0.260926 3.76716 0.250103 3.77845C0.24571 3.78309 0.240878 3.78713 0.236536 3.79185C0.231427 3.79746 0.227142 3.8035 0.222199 3.80918C0.211706 3.82124 0.20149 3.83349 0.191599 3.84609C0.182866 3.8573 0.17435 3.86859 0.16622 3.8801C0.157542 3.89232 0.149246 3.90473 0.141172 3.91739C0.133207 3.92995 0.125461 3.94255 0.1181 3.95538C0.111069 3.96779 0.104423 3.98043 0.0979414 3.9932C0.0911296 4.00666 0.084483 4.02014 0.0783304 4.03388C0.0725624 4.04687 0.0672346 4.06008 0.0620708 4.07343C0.0566326 4.08738 0.0513584 4.10133 0.0466346 4.1155C0.0421346 4.12907 0.0381206 4.1428 0.0342203 4.15668C0.0301556 4.17118 0.0263105 4.18571 0.0229591 4.20038C0.0198833 4.21408 0.0171912 4.22792 0.0147196 4.24188C0.0119734 4.25734 0.00955581 4.2728 0.00763206 4.28835C0.00598206 4.30172 0.00464549 4.31517 0.00362249 4.32869C0.00230399 4.34531 0.00146184 4.36193 0.00109584 4.37855C0.000933844 4.38575 0 4.39275 0 4.4V19.7C0.00054578 20.1772 0.190363 20.6348 0.52781 20.9722C0.865258 21.3097 1.32277 21.4994 1.8 21.5H21.6C22.0772 21.4994 22.5348 21.3097 22.8722 20.9722C23.2097 20.6348 23.3994 20.1772 23.4 19.7V4.4C23.4 4.39275 23.399 4.38575 23.3989 4.37855ZM1.8 6.44595L8.40443 12.5L1.8 18.5541V6.44595ZM3.21383 19.7L9.73641 13.721L11.0918 14.9634C11.2578 15.1156 11.4748 15.2 11.7 15.2C11.9252 15.2 12.1422 15.1156 12.3082 14.9634L13.6637 13.721L20.1863 19.7H3.21383ZM14.9956 12.5L21.6001 6.4458L21.6011 18.555L14.9956 12.5Z" fill="black"/>
</g>
<defs>
<clipPath id="clip0_1_127">
<rect width="24" height="18" fill="white" transform="translate(0 3.5)"/>
</clipPath>
</defs>
</svg>
