<svg width="36" height="31" viewBox="0 0 36 31" fill="none" xmlns="http://www.w3.org/2000/svg">
<g clip-path="url(#clip0_13_299)">
<path d="M34.6341 4.57971C34.4863 4.38208 34.2801 4.23615 34.0446 4.16269C33.8089 4.08921 33.5563 4.09198 33.3223 4.17058C31.8849 4.65396 30.3911 4.95009 28.8778 5.05162C28.0236 3.84894 26.8125 2.94544 25.4164 2.46896C24.0202 1.99249 22.5096 1.96721 21.0983 2.39669C19.6869 2.82617 18.4464 3.68867 17.5523 4.86208C16.6582 6.03549 16.1558 7.4604 16.1162 8.93511C13.8296 8.47087 11.6587 7.55492 9.73061 6.24088C7.80257 4.92682 6.15621 3.24116 4.88803 1.28266C4.76498 1.09358 4.58996 0.944042 4.38399 0.851992C4.17803 0.759943 3.94987 0.729298 3.72694 0.763736C3.50398 0.798175 3.29571 0.896233 3.12712 1.04614C2.95852 1.19604 2.8368 1.39142 2.77652 1.60882C1.74667 5.33141 1.8194 9.27289 2.98592 12.9549C4.15241 16.637 6.36255 19.9012 9.34808 22.3519C6.83589 23.7345 4.02244 24.4785 1.15519 24.5186C0.896871 24.5226 0.647072 24.6116 0.444572 24.7719C0.242074 24.9324 0.0982032 25.1552 0.0353001 25.4059C-0.0276032 25.6564 -0.00601977 25.9208 0.0966988 26.1578C0.199418 26.3948 0.377524 26.5912 0.603366 26.7167C3.54049 28.3427 6.84081 29.2001 10.1979 29.2097C13.5551 29.2191 16.8602 28.3802 19.8064 26.7709C22.7526 25.1614 25.2444 22.8337 27.0506 20.0038C28.8568 17.174 29.9186 13.9336 30.1376 10.5836C31.8864 9.29752 33.4127 7.73342 34.6556 5.95357C34.797 5.75147 34.8712 5.50986 34.8673 5.26316C34.8636 5.01647 34.7818 4.77729 34.6341 4.57971Z" fill="#6B6768"/>
</g>
<defs>
<clipPath id="clip0_13_299">
<rect width="35.625" height="30" fill="white" transform="translate(0 0.75)"/>
</clipPath>
</defs>
</svg>
