<svg width="31" height="30" viewBox="0 0 31 30" fill="none" xmlns="http://www.w3.org/2000/svg">
<g clip-path="url(#clip0_9_519)">
<path d="M15.2734 19.3359C17.8623 19.3359 19.9609 17.2373 19.9609 14.6484C19.9609 12.0596 17.8623 9.96094 15.2734 9.96094C12.6846 9.96094 10.5859 12.0596 10.5859 14.6484C10.5859 17.2373 12.6846 19.3359 15.2734 19.3359Z" fill="#6B6768"/>
<path d="M21.7188 0H8.82812C6.65328 0.00246309 4.56822 0.86751 3.03036 2.40536C1.49251 3.94322 0.627463 6.02828 0.625 8.20312V21.0938C0.627463 23.2686 1.49251 25.3538 3.03036 26.8914C4.56822 28.4293 6.65328 29.2944 8.82812 29.2969H21.7188C23.8936 29.2944 25.9788 28.4293 27.5164 26.8914C29.0543 25.3538 29.9194 23.2686 29.9219 21.0938V8.20312C29.9194 6.02828 29.0543 3.94322 27.5164 2.40536C25.9788 0.86751 23.8936 0.00246309 21.7188 0ZM15.2734 21.6797C13.8828 21.6797 12.5234 21.2674 11.3671 20.4947C10.2108 19.7222 9.30959 18.624 8.77741 17.3392C8.24522 16.0544 8.10599 14.6406 8.3773 13.2767C8.64859 11.9128 9.31825 10.6599 10.3016 9.67659C11.2849 8.69325 12.5378 8.02359 13.9017 7.7523C15.2656 7.48099 16.6794 7.62022 17.9642 8.15241C19.249 8.68459 20.3472 9.58581 21.1197 10.7421C21.8924 11.8984 22.3047 13.2578 22.3047 14.6484C22.3026 16.5126 21.5611 18.2998 20.2429 19.6179C18.9248 20.9361 17.1376 21.6776 15.2734 21.6797ZM22.8906 8.78906C22.543 8.78906 22.2031 8.68598 21.9141 8.49281C21.625 8.29967 21.3996 8.02513 21.2667 7.70394C21.1336 7.38274 21.0987 7.0293 21.1666 6.68831C21.2344 6.34734 21.4019 6.03412 21.6477 5.78829C21.8935 5.54246 22.2066 5.37504 22.5477 5.30721C22.8888 5.23939 23.2422 5.27421 23.5634 5.40724C23.8846 5.54029 24.1591 5.76559 24.3522 6.05466C24.5453 6.34373 24.6484 6.68359 24.6484 7.03125C24.6484 7.49745 24.4632 7.94456 24.1336 8.27421C23.8039 8.60387 23.3568 8.78906 22.8906 8.78906Z" fill="#6B6768"/>
</g>
<defs>
<clipPath id="clip0_9_519">
<rect width="30" height="30" fill="white" transform="translate(0.625)"/>
</clipPath>
</defs>
</svg>
