<svg width="31" height="31" viewBox="0 0 31 31" fill="none" xmlns="http://www.w3.org/2000/svg">
<g clip-path="url(#clip0_1_143)">
<path d="M15.2734 19.4141C17.8623 19.4141 19.9609 17.3154 19.9609 14.7266C19.9609 12.1377 17.8623 10.0391 15.2734 10.0391C12.6846 10.0391 10.5859 12.1377 10.5859 14.7266C10.5859 17.3154 12.6846 19.4141 15.2734 19.4141Z" fill="#6B6768"/>
<path d="M21.7188 0.078125H8.82812C6.65328 0.0805881 4.56822 0.945635 3.03036 2.48349C1.49251 4.02134 0.627463 6.1064 0.625 8.28125V21.1719C0.627463 23.3467 1.49251 25.4319 3.03036 26.9696C4.56822 28.5074 6.65328 29.3726 8.82812 29.375H21.7188C23.8936 29.3726 25.9788 28.5074 27.5164 26.9696C29.0543 25.4319 29.9194 23.3467 29.9219 21.1719V8.28125C29.9194 6.1064 29.0543 4.02134 27.5164 2.48349C25.9788 0.945635 23.8936 0.0805881 21.7188 0.078125ZM15.2734 21.7578C13.8828 21.7578 12.5234 21.3455 11.3671 20.5728C10.2108 19.8003 9.30959 18.7021 8.77741 17.4173C8.24522 16.1325 8.10599 14.7188 8.3773 13.3548C8.64859 11.9909 9.31825 10.7381 10.3016 9.75472C11.2849 8.77137 12.5378 8.10172 13.9017 7.83043C15.2656 7.55911 16.6794 7.69835 17.9642 8.23053C19.249 8.76271 20.3472 9.66393 21.1197 10.8202C21.8924 11.9765 22.3047 13.3359 22.3047 14.7266C22.3026 16.5907 21.5611 18.3779 20.2429 19.6961C18.9248 21.0142 17.1376 21.7558 15.2734 21.7578ZM22.8906 8.86719C22.543 8.86719 22.2031 8.7641 21.9141 8.57094C21.625 8.37779 21.3996 8.10326 21.2667 7.78207C21.1336 7.46086 21.0987 7.10743 21.1666 6.76644C21.2344 6.42547 21.4019 6.11225 21.6477 5.86642C21.8935 5.62059 22.2066 5.45317 22.5477 5.38533C22.8888 5.31751 23.2422 5.35233 23.5634 5.48536C23.8846 5.61841 24.1591 5.84371 24.3522 6.13278C24.5453 6.42185 24.6484 6.76171 24.6484 7.10938C24.6484 7.57557 24.4632 8.02269 24.1336 8.35233C23.8039 8.68199 23.3568 8.86719 22.8906 8.86719Z" fill="#6B6768"/>
</g>
<defs>
<clipPath id="clip0_1_143">
<rect width="30" height="30" fill="white" transform="translate(0.625 0.078125)"/>
</clipPath>
</defs>
</svg>
