<svg width="24" height="24" viewBox="0 0 24 24" fill="none" xmlns="http://www.w3.org/2000/svg">
<g opacity="0.5" clip-path="url(#clip0_9_503)">
<path d="M23.3989 3.87855C23.3986 3.86191 23.3977 3.84529 23.3964 3.8287C23.3953 3.81516 23.394 3.80171 23.3923 3.78835C23.3904 3.7728 23.388 3.75734 23.3852 3.74188C23.3828 3.72793 23.3801 3.71408 23.3771 3.70038C23.3737 3.68571 23.3699 3.67118 23.3658 3.65668C23.3618 3.64281 23.3579 3.62908 23.3533 3.61551C23.3486 3.60133 23.3434 3.58738 23.338 3.57343C23.3328 3.56008 23.3274 3.54687 23.3216 3.53388C23.3155 3.52015 23.3089 3.50666 23.3021 3.4932C23.2956 3.48043 23.2889 3.4678 23.2819 3.45538C23.2745 3.44256 23.2668 3.42995 23.2589 3.4174C23.2507 3.40474 23.2424 3.39232 23.2338 3.3801C23.2256 3.36859 23.2171 3.3573 23.2084 3.3461C23.1985 3.33349 23.1883 3.32123 23.1778 3.30918C23.1728 3.3035 23.1685 3.29745 23.1635 3.29186C23.1592 3.28713 23.1544 3.28312 23.1499 3.27851C23.1391 3.26714 23.1278 3.25623 23.1164 3.24544C23.1058 3.23544 23.0951 3.22553 23.0842 3.21611C23.0734 3.20688 23.0622 3.19814 23.0509 3.18941C23.0386 3.17985 23.0263 3.17037 23.0137 3.16156C23.0027 3.1539 22.9913 3.14678 22.98 3.13961C22.9666 3.13115 22.9532 3.12272 22.9396 3.11503C22.9276 3.10833 22.9152 3.10226 22.903 3.09611C22.8894 3.08932 22.876 3.08248 22.8622 3.07642C22.8486 3.07049 22.8349 3.06532 22.8211 3.06005C22.8078 3.055 22.7946 3.04986 22.7813 3.04547C22.7666 3.04066 22.7518 3.03665 22.737 3.03258C22.7237 3.02896 22.7104 3.02531 22.697 3.02231C22.6822 3.01899 22.667 3.01638 22.652 3.0138C22.6378 3.01138 22.6235 3.00902 22.6092 3.00729C22.5949 3.00556 22.5806 3.0044 22.5662 3.00336C22.5505 3.00221 22.5348 3.0013 22.519 3.00097C22.5126 3.00082 22.5065 3 22.5 3H0.9C0.893958 3 0.888134 3.0008 0.882092 3.00091C0.865504 3.00124 0.848914 3.00217 0.83238 3.00341C0.818701 3.00445 0.805133 3.00552 0.791675 3.00714C0.776568 3.00895 0.761572 3.01143 0.746521 3.01404C0.732184 3.01651 0.717847 3.01895 0.703784 3.02211C0.689609 3.02527 0.675659 3.02911 0.661597 3.03296C0.647422 3.03686 0.633252 3.04068 0.619354 3.04524C0.605292 3.04985 0.591454 3.05521 0.577552 3.06054C0.564422 3.06559 0.551239 3.07053 0.538385 3.07616C0.524047 3.08245 0.510035 3.08954 0.495972 3.09663C0.484159 3.10256 0.472346 3.10835 0.460872 3.11478C0.446809 3.12266 0.433076 3.13132 0.419344 3.14002C0.408358 3.147 0.397261 3.15392 0.386606 3.16136C0.373698 3.17032 0.361229 3.17993 0.34876 3.18965C0.337662 3.19825 0.326676 3.20687 0.316021 3.21599C0.304926 3.22547 0.294214 3.23544 0.283447 3.24557C0.272077 3.25629 0.260926 3.26716 0.250103 3.27845C0.24571 3.28309 0.240878 3.28713 0.236536 3.29185C0.231427 3.29746 0.227142 3.3035 0.222199 3.30918C0.211706 3.32124 0.20149 3.33349 0.191599 3.34609C0.182866 3.3573 0.17435 3.36859 0.16622 3.3801C0.157542 3.39232 0.149246 3.40473 0.141172 3.41739C0.133207 3.42995 0.125461 3.44255 0.1181 3.45538C0.111069 3.46779 0.104423 3.48043 0.0979414 3.4932C0.0911296 3.50666 0.084483 3.52014 0.0783304 3.53388C0.0725624 3.54687 0.0672346 3.56008 0.0620708 3.57343C0.0566326 3.58738 0.0513584 3.60133 0.0466346 3.6155C0.0421346 3.62907 0.0381206 3.6428 0.0342203 3.65668C0.0301556 3.67118 0.0263105 3.68571 0.0229591 3.70038C0.0198833 3.71408 0.0171912 3.72792 0.0147196 3.74188C0.0119734 3.75734 0.00955581 3.7728 0.00763206 3.78835C0.00598206 3.80172 0.00464549 3.81517 0.00362249 3.82869C0.00230399 3.84531 0.00146184 3.86193 0.00109584 3.87855C0.000933844 3.88575 0 3.89275 0 3.9V19.2C0.00054578 19.6772 0.190363 20.1348 0.52781 20.4722C0.865258 20.8097 1.32277 20.9994 1.8 21H21.6C22.0772 20.9994 22.5348 20.8097 22.8722 20.4722C23.2097 20.1348 23.3994 19.6772 23.4 19.2V3.9C23.4 3.89275 23.399 3.88575 23.3989 3.87855ZM1.8 5.94595L8.40443 12L1.8 18.0541V5.94595ZM3.21383 19.2L9.73641 13.221L11.0918 14.4634C11.2578 14.6156 11.4748 14.7 11.7 14.7C11.9252 14.7 12.1422 14.6156 12.3082 14.4634L13.6637 13.221L20.1863 19.2H3.21383ZM14.9956 12L21.6001 5.9458L21.6011 18.055L14.9956 12Z" fill="black"/>
</g>
<defs>
<clipPath id="clip0_9_503">
<rect width="24" height="18" fill="white" transform="translate(0 3)"/>
</clipPath>
</defs>
</svg>
