<svg width="21" height="21" viewBox="0 0 21 21" fill="none" xmlns="http://www.w3.org/2000/svg">
<g clip-path="url(#clip0_9_414)">
<path d="M13.6419 7.1025L9.35188 11.4025L7.70188 9.7525C7.61224 9.64782 7.50191 9.5628 7.37784 9.50277C7.25378 9.44275 7.11866 9.40902 6.98094 9.4037C6.84321 9.39838 6.70589 9.42159 6.57756 9.47186C6.44923 9.52214 6.33268 9.59839 6.23523 9.69585C6.13778 9.7933 6.06151 9.90985 6.01124 10.0382C5.96096 10.1665 5.93777 10.3038 5.94309 10.4416C5.94841 10.5793 5.98213 10.7144 6.04215 10.8385C6.10217 10.9625 6.18719 11.0729 6.29187 11.1625L8.64187 13.5225C8.73531 13.6152 8.84613 13.6885 8.96797 13.7383C9.08982 13.788 9.22027 13.8133 9.35188 13.8125C9.61421 13.8114 9.86561 13.7072 10.0519 13.5225L15.0519 8.5225C15.1456 8.42954 15.22 8.31894 15.2708 8.19708C15.3216 8.07522 15.3477 7.94451 15.3477 7.8125C15.3477 7.68049 15.3216 7.54978 15.2708 7.42792C15.22 7.30606 15.1456 7.19546 15.0519 7.1025C14.8645 6.91625 14.6111 6.81171 14.3469 6.81171C14.0827 6.81171 13.8293 6.91625 13.6419 7.1025ZM10.9219 0.3125C8.94407 0.3125 7.01066 0.89899 5.36618 1.9978C3.72169 3.09662 2.43997 4.6584 1.68308 6.48567C0.926208 8.31293 0.728174 10.3236 1.11403 12.2634C1.49988 14.2032 2.45229 15.985 3.85082 17.3836C5.24934 18.7821 7.03117 19.7345 8.97097 20.1204C10.9108 20.5062 12.9215 20.3082 14.7487 19.5513C16.576 18.7944 18.1378 17.5127 19.2366 15.8682C20.3354 14.2237 20.9219 12.2903 20.9219 10.3125C20.9219 8.99928 20.6632 7.69892 20.1607 6.48567C19.6582 5.27241 18.9216 4.17002 17.993 3.24143C17.0644 2.31285 15.962 1.57625 14.7487 1.07371C13.5355 0.571158 12.2351 0.3125 10.9219 0.3125ZM10.9219 18.3125C9.33963 18.3125 7.79291 17.8433 6.47731 16.9643C5.16173 16.0852 4.13635 14.8358 3.53085 13.374C2.92535 11.9122 2.76692 10.3036 3.0756 8.75178C3.38428 7.19993 4.14621 5.77447 5.26503 4.65565C6.38385 3.53683 7.8093 2.7749 9.36115 2.46622C10.913 2.15754 12.5216 2.31596 13.9834 2.92146C15.4452 3.52697 16.6946 4.55234 17.5737 5.86794C18.4527 7.18353 18.9219 8.73025 18.9219 10.3125C18.9219 12.4342 18.0791 14.4691 16.5788 15.9694C15.0785 17.4696 13.0436 18.3125 10.9219 18.3125Z" fill="white"/>
</g>
<defs>
<clipPath id="clip0_9_414">
<rect width="20" height="20" fill="white" transform="translate(0.921875 0.3125)"/>
</clipPath>
</defs>
</svg>
