<svg width="24" height="25" viewBox="0 0 24 25" fill="none" xmlns="http://www.w3.org/2000/svg">
<g opacity="0.5" clip-path="url(#clip0_13_289)">
<path d="M23.3989 4.62855C23.3986 4.61191 23.3977 4.59529 23.3964 4.5787C23.3953 4.56516 23.394 4.55171 23.3923 4.53835C23.3904 4.5228 23.388 4.50734 23.3852 4.49188C23.3828 4.47793 23.3801 4.46408 23.3771 4.45038C23.3737 4.43571 23.3699 4.42118 23.3658 4.40668C23.3618 4.39281 23.3579 4.37908 23.3533 4.36551C23.3486 4.35133 23.3434 4.33738 23.338 4.32343C23.3328 4.31008 23.3274 4.29687 23.3216 4.28388C23.3155 4.27015 23.3089 4.25666 23.3021 4.2432C23.2956 4.23043 23.2889 4.2178 23.2819 4.20538C23.2745 4.19256 23.2668 4.17995 23.2589 4.1674C23.2507 4.15474 23.2424 4.14232 23.2338 4.1301C23.2256 4.11859 23.2171 4.1073 23.2084 4.0961C23.1985 4.08349 23.1883 4.07123 23.1778 4.05918C23.1728 4.0535 23.1685 4.04745 23.1635 4.04186C23.1592 4.03713 23.1544 4.03312 23.1499 4.02851C23.1391 4.01714 23.1278 4.00623 23.1164 3.99544C23.1058 3.98544 23.0951 3.97553 23.0842 3.96611C23.0734 3.95688 23.0622 3.94814 23.0509 3.93941C23.0386 3.92985 23.0263 3.92037 23.0137 3.91156C23.0027 3.9039 22.9913 3.89678 22.98 3.88961C22.9666 3.88115 22.9532 3.87272 22.9396 3.86503C22.9276 3.85833 22.9152 3.85226 22.903 3.84611C22.8894 3.83932 22.876 3.83248 22.8622 3.82642C22.8486 3.82049 22.8349 3.81532 22.8211 3.81005C22.8078 3.805 22.7946 3.79986 22.7813 3.79547C22.7666 3.79066 22.7518 3.78665 22.737 3.78258C22.7237 3.77896 22.7104 3.77531 22.697 3.77231C22.6822 3.76899 22.667 3.76638 22.652 3.7638C22.6378 3.76138 22.6235 3.75902 22.6092 3.75729C22.5949 3.75556 22.5806 3.7544 22.5662 3.75336C22.5505 3.75221 22.5348 3.7513 22.519 3.75097C22.5126 3.75082 22.5065 3.75 22.5 3.75H0.9C0.893958 3.75 0.888134 3.7508 0.882092 3.75091C0.865504 3.75124 0.848914 3.75217 0.83238 3.75341C0.818701 3.75445 0.805133 3.75552 0.791675 3.75714C0.776568 3.75895 0.761572 3.76143 0.746521 3.76404C0.732184 3.76651 0.717847 3.76895 0.703784 3.77211C0.689609 3.77527 0.675659 3.77911 0.661597 3.78296C0.647422 3.78686 0.633252 3.79068 0.619354 3.79524C0.605292 3.79985 0.591454 3.80521 0.577552 3.81054C0.564422 3.81559 0.551239 3.82053 0.538385 3.82616C0.524047 3.83245 0.510035 3.83954 0.495972 3.84663C0.484159 3.85256 0.472346 3.85835 0.460872 3.86478C0.446809 3.87266 0.433076 3.88132 0.419344 3.89002C0.408358 3.897 0.397261 3.90392 0.386606 3.91136C0.373698 3.92032 0.361229 3.92993 0.34876 3.93965C0.337662 3.94825 0.326676 3.95687 0.316021 3.96599C0.304926 3.97547 0.294214 3.98544 0.283447 3.99557C0.272077 4.00629 0.260926 4.01716 0.250103 4.02845C0.24571 4.03309 0.240878 4.03713 0.236536 4.04185C0.231427 4.04746 0.227142 4.0535 0.222199 4.05918C0.211706 4.07124 0.20149 4.08349 0.191599 4.09609C0.182866 4.1073 0.17435 4.11859 0.16622 4.1301C0.157542 4.14232 0.149246 4.15473 0.141172 4.16739C0.133207 4.17995 0.125461 4.19255 0.1181 4.20538C0.111069 4.21779 0.104423 4.23043 0.0979414 4.2432C0.0911296 4.25666 0.084483 4.27014 0.0783304 4.28388C0.0725624 4.29687 0.0672346 4.31008 0.0620708 4.32343C0.0566326 4.33738 0.0513584 4.35133 0.0466346 4.3655C0.0421346 4.37907 0.0381206 4.3928 0.0342203 4.40668C0.0301556 4.42118 0.0263105 4.43571 0.0229591 4.45038C0.0198833 4.46408 0.0171912 4.47792 0.0147196 4.49188C0.0119734 4.50734 0.00955582 4.5228 0.00763206 4.53835C0.00598206 4.55172 0.00464549 4.56517 0.00362249 4.57869C0.00230399 4.59531 0.00146184 4.61193 0.00109584 4.62855C0.000933844 4.63575 0 4.64275 0 4.65V19.95C0.00054578 20.4272 0.190363 20.8848 0.52781 21.2222C0.865258 21.5597 1.32277 21.7494 1.8 21.75H21.6C22.0772 21.7494 22.5348 21.5597 22.8722 21.2222C23.2097 20.8848 23.3994 20.4272 23.4 19.95V4.65C23.4 4.64275 23.399 4.63575 23.3989 4.62855ZM1.8 6.69595L8.40443 12.75L1.8 18.8041V6.69595ZM3.21383 19.95L9.73642 13.971L11.0918 15.2134C11.2578 15.3656 11.4748 15.45 11.7 15.45C11.9252 15.45 12.1422 15.3656 12.3082 15.2134L13.6637 13.971L20.1863 19.95H3.21383ZM14.9956 12.75L21.6001 6.6958L21.6011 18.805L14.9956 12.75Z" fill="black"/>
</g>
<defs>
<clipPath id="clip0_13_289">
<rect width="24" height="18" fill="white" transform="translate(0 3.75)"/>
</clipPath>
</defs>
</svg>
