<svg width="31" height="30" viewBox="0 0 31 30" fill="none" xmlns="http://www.w3.org/2000/svg">
<g clip-path="url(#clip0_9_523)">
<path d="M14.9632 0C11.256 6.76819e-05 7.69293 1.43599 5.02159 4.00646C2.35026 6.57693 0.778323 10.0822 0.635635 13.7866C0.492947 17.4911 1.7906 21.1068 4.25629 23.8752C6.72199 26.6435 10.1641 28.3493 13.8603 28.6345V17.6472H10.5515C10.259 17.6472 9.97842 17.531 9.77158 17.3241C9.56474 17.1173 9.44853 16.8368 9.44853 16.5442C9.44853 16.2517 9.56474 15.9712 9.77158 15.7643C9.97842 15.5575 10.259 15.4413 10.5515 15.4413H13.8603V12.1325C13.8616 10.9628 14.3269 9.84145 15.1539 9.01436C15.981 8.1873 17.1024 7.72205 18.2721 7.72071H20.4779C20.7705 7.72071 21.0509 7.83692 21.2578 8.04376C21.4646 8.2506 21.5809 8.53113 21.5809 8.82365C21.5809 9.11617 21.4646 9.39671 21.2578 9.60355C21.0509 9.8104 20.7705 9.92659 20.4779 9.92659H18.2721C17.6872 9.92726 17.1265 10.1599 16.713 10.5734C16.2995 10.987 16.0668 11.5477 16.0662 12.1325V15.4413H19.375C19.6676 15.4413 19.948 15.5575 20.1548 15.7643C20.3616 15.9712 20.4779 16.2517 20.4779 16.5442C20.4779 16.8368 20.3616 17.1173 20.1548 17.3241C19.948 17.531 19.6676 17.6472 19.375 17.6472H16.0662V28.6345C19.7624 28.3493 23.2044 26.6435 25.6701 23.8751C28.1359 21.1068 29.4335 17.4911 29.2907 13.7866C29.1481 10.0822 27.5761 6.57695 24.9049 4.00648C22.2335 1.43601 18.6704 8.15352e-05 14.9632 0Z" fill="#6B6768"/>
</g>
<defs>
<clipPath id="clip0_9_523">
<rect width="30" height="30" fill="white" transform="translate(0.625)"/>
</clipPath>
</defs>
</svg>
