<svg width="31" height="31" viewBox="0 0 31 31" fill="none" xmlns="http://www.w3.org/2000/svg">
<g clip-path="url(#clip0_13_302)">
<path d="M28.125 0.75H3.125C2.46219 0.750758 1.82675 1.01439 1.35807 1.48307C0.889394 1.95175 0.625758 2.58719 0.625 3.25V28.25C0.625758 28.9128 0.889394 29.5482 1.35807 30.017C1.82675 30.4856 2.46219 30.7492 3.125 30.75H28.125C28.7878 30.7492 29.4232 30.4856 29.892 30.017C30.3606 29.5482 30.6242 28.9128 30.625 28.25V3.25C30.6242 2.58719 30.3606 1.95175 29.892 1.48307C29.4232 1.01439 28.7878 0.750758 28.125 0.75ZM10.625 23.2502C10.625 23.5816 10.4933 23.8996 10.2589 24.134C10.0245 24.3684 9.70652 24.5002 9.375 24.5002C9.04348 24.5002 8.72554 24.3684 8.49112 24.134C8.2567 23.8996 8.125 23.5816 8.125 23.2502V13.2501C8.125 12.9186 8.2567 12.6007 8.49112 12.3663C8.72554 12.1318 9.04348 12.0001 9.375 12.0001C9.70652 12.0001 10.0245 12.1318 10.2589 12.3663C10.4933 12.6007 10.625 12.9186 10.625 13.2501V23.2502ZM9.375 10.1251C9.00416 10.1251 8.64164 10.0152 8.3333 9.80916C8.02496 9.60312 7.78464 9.31028 7.64272 8.96768C7.50082 8.62506 7.46368 8.24806 7.53602 7.88436C7.60838 7.52064 7.78696 7.18654 8.04918 6.92432C8.3114 6.6621 8.6455 6.48352 9.0092 6.41118C9.37292 6.33882 9.74992 6.37596 10.0925 6.51788C10.4351 6.65978 10.728 6.90012 10.934 7.20846C11.14 7.5168 11.25 7.8793 11.25 8.25014C11.25 8.74742 11.0525 9.22434 10.7008 9.57598C10.3492 9.9276 9.87228 10.1251 9.375 10.1251ZM24.375 23.2502C24.375 23.5816 24.2434 23.8996 24.0088 24.134C23.7744 24.3684 23.4566 24.5002 23.125 24.5002C22.7934 24.5002 22.4756 24.3684 22.2412 24.134C22.0066 23.8996 21.875 23.5816 21.875 23.2502V17.6251C21.875 16.7963 21.5458 16.0015 20.9598 15.4154C20.3737 14.8294 19.5788 14.5001 18.75 14.5001C17.9212 14.5001 17.1263 14.8294 16.5403 15.4154C15.9542 16.0015 15.625 16.7963 15.625 17.6251V23.2502C15.625 23.5816 15.4933 23.8996 15.2589 24.134C15.0245 24.3684 14.7065 24.5002 14.375 24.5002C14.0435 24.5002 13.7255 24.3684 13.4911 24.134C13.2567 23.8996 13.125 23.5816 13.125 23.2502V13.2501C13.1249 12.9429 13.238 12.6463 13.4427 12.4172C13.6474 12.1881 13.9294 12.0424 14.2348 12.008C14.5401 11.9736 14.8474 12.0529 15.0979 12.2308C15.3485 12.4087 15.5247 12.6726 15.593 12.9722C16.4383 12.3978 17.4243 12.0646 18.4448 12.0086C19.4654 11.9526 20.4819 12.1758 21.385 12.6543C22.2882 13.1328 23.0438 13.8485 23.5706 14.7243C24.0974 15.6002 24.3756 16.6031 24.375 17.6251V23.2502Z" fill="#6B6768"/>
</g>
<defs>
<clipPath id="clip0_13_302">
<rect width="30" height="30" fill="white" transform="translate(0.625 0.75)"/>
</clipPath>
</defs>
</svg>
