<svg width="30" height="30" viewBox="0 0 30 30" fill="none" xmlns="http://www.w3.org/2000/svg">
<g clip-path="url(#clip0_9_508)">
<path d="M15 30C23.2843 30 30 23.2843 30 15C30 6.71573 23.2843 0 15 0C6.71573 0 0 6.71573 0 15C0 23.2843 6.71573 30 15 30Z" fill="#6B6768"/>
<path fill-rule="evenodd" clip-rule="evenodd" d="M6.78984 14.8417C11.1626 12.9365 14.0785 11.6805 15.5375 11.0737C19.7032 9.34105 20.5687 9.04007 21.1329 9.03014C21.257 9.02795 21.5345 9.0587 21.7142 9.20453C21.8659 9.32767 21.9077 9.494 21.9277 9.61075C21.9476 9.72749 21.9725 9.99344 21.9527 10.2012C21.727 12.5731 20.7502 18.329 20.2533 20.9855C20.043 22.1096 19.629 22.4865 19.2282 22.5233C18.3571 22.6035 17.6957 21.9477 16.852 21.3946C15.5318 20.5292 14.786 19.9905 13.5045 19.146C12.0235 18.1701 12.9836 17.6337 13.8276 16.7571C14.0484 16.5277 17.8864 13.0367 17.9607 12.72C17.97 12.6804 17.9786 12.5328 17.8909 12.4548C17.8032 12.3769 17.6738 12.4035 17.5804 12.4247C17.4479 12.4548 15.3389 13.8488 11.2533 16.6067C10.6546 17.0178 10.1124 17.2181 9.62658 17.2076C9.091 17.196 8.06077 16.9048 7.29489 16.6558C6.35551 16.3504 5.60892 16.189 5.67393 15.6704C5.70779 15.4003 6.07976 15.1241 6.78984 14.8417Z" fill="white"/>
</g>
<defs>
<clipPath id="clip0_9_508">
<rect width="30" height="30" fill="white"/>
</clipPath>
</defs>
</svg>
