<svg width="30" height="31" viewBox="0 0 30 31" fill="none" xmlns="http://www.w3.org/2000/svg">
<g clip-path="url(#clip0_1_132)">
<path d="M15 30.0781C23.2843 30.0781 30 23.3624 30 15.0781C30 6.79385 23.2843 0.078125 15 0.078125C6.71573 0.078125 0 6.79385 0 15.0781C0 23.3624 6.71573 30.0781 15 30.0781Z" fill="#6B6768"/>
<path fill-rule="evenodd" clip-rule="evenodd" d="M6.78984 14.9196C11.1626 13.0144 14.0785 11.7584 15.5375 11.1516C19.7032 9.41893 20.5687 9.11795 21.1329 9.10802C21.257 9.10583 21.5345 9.13658 21.7142 9.28241C21.8659 9.40555 21.9077 9.57188 21.9277 9.68863C21.9476 9.80538 21.9725 10.0713 21.9527 10.2791C21.727 12.651 20.7502 18.4069 20.2533 21.0634C20.043 22.1874 19.629 22.5643 19.2282 22.6012C18.3571 22.6814 17.6957 22.0256 16.852 21.4725C15.5318 20.6071 14.786 20.0684 13.5045 19.2239C12.0235 18.248 12.9836 17.7116 13.8276 16.835C14.0484 16.6056 17.8864 13.1146 17.9607 12.7979C17.97 12.7583 17.9786 12.6107 17.8909 12.5327C17.8032 12.4548 17.6738 12.4814 17.5804 12.5026C17.4479 12.5327 15.3389 13.9267 11.2533 16.6846C10.6546 17.0957 10.1124 17.296 9.62658 17.2855C9.091 17.2739 8.06077 16.9826 7.29489 16.7337C6.35551 16.4283 5.60892 16.2669 5.67393 15.7483C5.70779 15.4782 6.07976 15.2019 6.78984 14.9196Z" fill="white"/>
</g>
<defs>
<clipPath id="clip0_1_132">
<rect width="30" height="30" fill="white" transform="translate(0 0.078125)"/>
</clipPath>
</defs>
</svg>
