<svg width="30" height="31" viewBox="0 0 30 31" fill="none" xmlns="http://www.w3.org/2000/svg">
<g clip-path="url(#clip0_13_294)">
<path d="M15 30.75C23.2843 30.75 30 24.0343 30 15.75C30 7.46573 23.2843 0.75 15 0.75C6.71573 0.75 0 7.46573 0 15.75C0 24.0343 6.71573 30.75 15 30.75Z" fill="#6B6768"/>
<path fill-rule="evenodd" clip-rule="evenodd" d="M6.7899 15.5914C11.1627 13.6863 14.0786 12.4303 15.5376 11.8234C19.7032 10.0908 20.5688 9.78983 21.133 9.77989C21.2571 9.77771 21.5345 9.80846 21.7142 9.95429C21.866 10.0774 21.9077 10.2438 21.9277 10.3605C21.9477 10.4773 21.9726 10.7432 21.9528 10.951C21.7271 13.3229 20.7503 19.0787 20.2534 21.7352C20.0431 22.8593 19.6291 23.2362 19.2283 23.2731C18.3572 23.3533 17.6957 22.6974 16.852 22.1444C15.5319 21.279 14.786 20.7403 13.5045 19.8958C12.0236 18.9198 12.9836 18.3835 13.8276 17.5068C14.0485 17.2774 17.8865 13.7865 17.9608 13.4698C17.9701 13.4302 17.9787 13.2826 17.891 13.2046C17.8033 13.1266 17.6738 13.1533 17.5804 13.1745C17.448 13.2046 15.339 14.5985 11.2533 17.3565C10.6547 17.7675 10.1125 17.9678 9.62664 17.9573C9.09106 17.9458 8.06083 17.6545 7.29495 17.4056C6.35558 17.1002 5.60898 16.9388 5.67399 16.4202C5.70785 16.1501 6.07982 15.8738 6.7899 15.5914Z" fill="white"/>
</g>
<defs>
<clipPath id="clip0_13_294">
<rect width="30" height="30" fill="white" transform="translate(0 0.75)"/>
</clipPath>
</defs>
</svg>
