<svg width="21" height="21" viewBox="0 0 21 21" fill="none" xmlns="http://www.w3.org/2000/svg">
<g clip-path="url(#clip0_13_198)">
<path d="M13.22 7.64937L8.93001 11.9494L7.28 10.2994C7.19036 10.1947 7.08004 10.1097 6.95597 10.0496C6.83191 9.98963 6.69678 9.95589 6.55906 9.95057C6.42134 9.94525 6.28401 9.96846 6.15568 10.0187C6.02736 10.069 5.91081 10.1453 5.81335 10.2427C5.7159 10.3402 5.63964 10.4567 5.58937 10.5851C5.53909 10.7134 5.51589 10.8507 5.52121 10.9885C5.52653 11.1262 5.56026 11.2613 5.62028 11.3854C5.6803 11.5094 5.76532 11.6198 5.87 11.7094L8.22 14.0694C8.31344 14.1621 8.42426 14.2354 8.5461 14.2852C8.66794 14.3349 8.7984 14.3602 8.93001 14.3594C9.19234 14.3583 9.44374 14.2541 9.63 14.0694L14.63 9.06938C14.7237 8.97642 14.7981 8.86582 14.8489 8.74396C14.8997 8.6221 14.9258 8.49138 14.9258 8.35938C14.9258 8.22737 14.8997 8.09665 14.8489 7.97479C14.7981 7.85293 14.7237 7.74233 14.63 7.64937C14.4426 7.46312 14.1892 7.35858 13.925 7.35858C13.6608 7.35858 13.4074 7.46312 13.22 7.64937ZM10.5 0.859375C8.52219 0.859375 6.58879 1.44587 4.9443 2.54467C3.29981 3.64349 2.01809 5.20528 1.26121 7.03255C0.504333 8.85981 0.306299 10.8705 0.692152 12.8103C1.078 14.7501 2.03041 16.5319 3.42894 17.9305C4.82746 19.329 6.60929 20.2814 8.5491 20.6673C10.4889 21.0531 12.4996 20.8551 14.3268 20.0982C16.1541 19.3413 17.7159 18.0596 18.8147 16.4151C19.9135 14.7706 20.5 12.8372 20.5 10.8594C20.5 9.54615 20.2413 8.2458 19.7388 7.03255C19.2363 5.81929 18.4997 4.7169 17.5711 3.78831C16.6425 2.85973 15.5401 2.12313 14.3268 1.62058C13.1136 1.11803 11.8132 0.859375 10.5 0.859375ZM10.5 18.8594C8.91775 18.8594 7.37104 18.3902 6.05544 17.5112C4.73985 16.6321 3.71447 15.3827 3.10897 13.9209C2.50347 12.4591 2.34504 10.8505 2.65372 9.29865C2.9624 7.7468 3.72433 6.32135 4.84315 5.20253C5.96197 4.08371 7.38743 3.32177 8.93928 3.01309C10.4911 2.70441 12.0997 2.86283 13.5615 3.46833C15.0233 4.07384 16.2727 5.09921 17.1518 6.41481C18.0308 7.7304 18.5 9.27713 18.5 10.8594C18.5 12.9811 17.6572 15.016 16.1569 16.5163C14.6566 18.0165 12.6217 18.8594 10.5 18.8594Z" fill="white"/>
</g>
<defs>
<clipPath id="clip0_13_198">
<rect width="20" height="20" fill="white" transform="translate(0.5 0.859375)"/>
</clipPath>
</defs>
</svg>
